HIERARCHY
ROOT Hips
{
	OFFSET -3.958830 18.904000 13.208200
	CHANNELS 6 Xposition Yposition Zposition Zrotation Yrotation Xrotation 
	JOINT LHipJoint
	{
		OFFSET 0.000000 0.000000 0.000000
		CHANNELS 3 Zrotation Yrotation Xrotation
		JOINT LeftUpLeg
		{
			OFFSET 1.800000 -1.400000 0.085000
			CHANNELS 3 Zrotation Yrotation Xrotation
			JOINT LeftLeg
			{
				OFFSET 2.215000 -6.000000 0.000000
				CHANNELS 3 Zrotation Yrotation Xrotation
				JOINT LeftFoot
				{
					OFFSET 2.500000 -6.900000 0.000000
					CHANNELS 3 Zrotation Yrotation Xrotation
					JOINT LeftToeBase
					{
						OFFSET 0.200000 -0.500000 1.950000
						CHANNELS 3 Zrotation Yrotation Xrotation
						End Site
						{
							OFFSET 0.000000 0.000000 0.000000
						}
					}
				}
			}
		}
	}
	JOINT RHipJoint
	{
		OFFSET 0.000000 0.000000 0.000000
		CHANNELS 3 Zrotation Yrotation Xrotation
		JOINT RightUpLeg
		{
			OFFSET -1.800000 -1.400000 0.085000
			CHANNELS 3 Zrotation Yrotation Xrotation
			JOINT RightLeg
			{
				OFFSET -2.215000 -6.000000 0.000000
				CHANNELS 3 Zrotation Yrotation Xrotation
				JOINT RightFoot
				{
					OFFSET -2.500000 -6.900000 0.000000
					CHANNELS 3 Zrotation Yrotation Xrotation
					JOINT RightToeBase
					{
						OFFSET -0.200000 -0.500000 1.950000
						CHANNELS 3 Zrotation Yrotation Xrotation
						End Site
						{
							OFFSET 0.000000 0.000000 0.000000
						}
					}
				}
			}
		}
	}
	JOINT LowerBack
	{
		OFFSET 0.000000 0.000000 0.000000
		CHANNELS 3 Zrotation Yrotation Xrotation
		JOINT Spine
		{
			OFFSET -0.087000 1.940000 -0.288900
			CHANNELS 3 Zrotation Yrotation Xrotation
			JOINT Spine1
			{
				OFFSET 0.000000 1.950000 0.060000
				CHANNELS 3 Zrotation Yrotation Xrotation
				JOINT Neck
				{
					OFFSET 0.000000 0.000000 0.000000
					CHANNELS 3 Zrotation Yrotation Xrotation
					JOINT Neck1
					{
						OFFSET 0.000000 1.600000 0.340000
						CHANNELS 3 Zrotation Yrotation Xrotation
						JOINT Head
						{
							OFFSET 0.000000 1.667000 -0.240000
							CHANNELS 3 Zrotation Yrotation Xrotation
							End Site
							{
								OFFSET 0.000000 0.000000 0.000000
							}
						}
					}
				}
				JOINT LeftShoulder
				{
					OFFSET 0.000000 0.000000 0.000000
					CHANNELS 3 Zrotation Yrotation Xrotation
					JOINT LeftArm
					{
						OFFSET 2.700000 1.550000 -0.730000
						CHANNELS 3 Zrotation Yrotation Xrotation
						JOINT LeftForeArm
						{
							OFFSET 5.450000 0.000000 0.000000
							CHANNELS 3 Zrotation Yrotation Xrotation
							JOINT LeftHand
							{
								OFFSET 3.450000 0.000000 0.000000
								CHANNELS 3 Zrotation Yrotation Xrotation
								JOINT LeftHandIndex1
								{
									OFFSET 0.750000 0.000000 0.000000
									CHANNELS 3 Zrotation Yrotation Xrotation
									End Site
									{
										OFFSET 0.000000 0.000000 0.000000
									}
								}
							}
						}
					}
				}
				JOINT RightShoulder
				{
					OFFSET 0.000000 0.000000 0.000000
					CHANNELS 3 Zrotation Yrotation Xrotation
					JOINT RightArm
					{
						OFFSET -2.700000 1.550000 -0.730000
						CHANNELS 3 Zrotation Yrotation Xrotation
						JOINT RightForeArm
						{
							OFFSET -5.450000 0.000000 0.000000
							CHANNELS 3 Zrotation Yrotation Xrotation
							JOINT RightHand
							{
								OFFSET -3.450000 0.000000 0.000000
								CHANNELS 3 Zrotation Yrotation Xrotation
								JOINT RightHandIndex1
								{
									OFFSET -0.750000 0.000000 0.000000
									CHANNELS 3 Zrotation Yrotation Xrotation
									End Site
									{
										OFFSET 0.000000 0.000000 0.000000
									}
								}
							}
						}
					}
				}
			}
		}
	}
}
MOTION
Frames: 11
Frame Time: 0.016667
-1.476910 17.422550 -2.140080 20.626880 -30.933148 -32.074411 -16.313711 10.062418 7.719018 23.905579 14.790113 -74.059929 -5.229062 18.316206 48.566393 0.745115 11.515407 0.374628 0.837540 0.628300 0.712370 17.979750 -7.806072 1.186211 -24.312378 6.320159 11.022405 14.328970 -7.627211 12.295725 -1.100967 -5.947729 2.277469 0.138510 -0.360700 0.272580 -1.685509 -3.854073 -10.125005 -11.415024 12.376251 55.789989 0.998200 11.845693 10.641236 5.826034 -12.353019 -17.439764 -24.206483 14.105342 40.120698 -10.820990 5.611770 -29.242560 -25.538159 -20.710524 10.040415 -43.770325 17.587960 -21.503197 -62.324678 -17.470180 -3.525491 -2.989108 3.185207 0.717010 -0.363320 0.487600 0.171610 15.394947 44.711595 10.099182 14.198114 26.062223 -20.572861 -117.416355 45.084098 -83.726094 2.353533 -0.822220 0.210420 0.060850 -0.358360 -0.158790 
-1.461570 17.469500 -2.086200 22.438943 -29.708740 -32.713772 -16.258199 10.208032 7.554727 21.787261 10.294914 -76.355137 4.098195 15.515710 57.325618 0.855831 11.408417 0.453262 0.791620 0.586440 0.664270 17.973107 -7.940379 1.192314 -27.300947 6.347589 9.899634 14.714286 -8.230944 13.539516 -1.055904 -6.144191 2.200762 0.105940 -0.315070 0.291590 -1.762539 -3.854153 -10.025978 -12.542328 12.633244 55.764352 1.224367 11.609082 11.931542 5.277684 -11.878757 -17.856566 -23.406198 13.303151 38.885103 -11.022400 5.194210 -27.456910 -23.847646 -21.945664 10.903538 -40.336862 17.514559 -20.666516 -68.859240 -23.000149 0.544628 -3.029058 3.272367 0.665170 -0.313050 0.450180 0.170870 14.807619 44.989932 10.702497 14.829789 25.413899 -20.309464 -123.062476 40.477807 -89.644140 2.293981 -1.120720 0.221930 0.040780 -0.334110 -0.138550 
-1.413130 17.516650 -2.039190 23.625695 -31.059515 -32.185926 -16.266736 9.806566 8.047075 24.731776 9.788237 -76.756236 -1.718548 19.810965 61.609756 1.180568 12.568615 0.161320 0.756470 0.568730 0.626080 18.036868 -7.971307 0.907677 -28.705235 6.461112 5.915660 14.452117 -8.696279 17.185994 -0.937743 -6.075318 2.209844 0.085500 -0.276710 0.302690 -1.850851 -3.489381 -10.084461 -12.301453 12.544560 55.255222 1.002979 11.459883 12.722121 4.758332 -11.674027 -17.657756 -22.567377 13.025875 36.585872 -11.868440 5.469120 -26.475580 -21.324734 -21.516607 11.365669 -39.464732 17.333940 -20.201942 -75.745994 -29.801495 6.779545 -3.077617 3.366523 0.601950 -0.263710 0.415020 0.173740 13.091113 43.940979 10.649670 16.983644 26.571266 -19.131742 -127.341538 37.587734 -95.383291 2.238743 -1.300923 0.237280 0.022530 -0.323190 -0.118180 
-1.346100 17.591760 -1.978290 23.585601 -33.150517 -31.597890 -16.180321 9.716142 8.256898 24.605723 7.853189 -76.902445 -4.238910 23.108101 67.814774 1.556510 13.658262 -0.099490 0.777670 0.602050 0.642040 18.113099 -8.237853 0.714607 -28.531450 6.469413 2.066657 13.139513 -8.878706 21.353796 -0.872794 -5.912058 2.230876 0.089660 -0.303800 0.304540 -2.028651 -3.052446 -10.052855 -10.110289 11.302069 55.758829 -0.053314 10.962321 12.244433 4.687991 -11.786298 -17.873350 -23.646834 13.777938 37.545411 -12.503700 5.352150 -25.528170 -20.993583 -21.321408 10.989429 -39.762761 16.379922 -19.914650 -75.452350 -28.934847 6.331095 -3.063185 3.387072 0.581130 -0.279100 0.435680 0.181090 12.889228 43.063649 11.187502 19.823885 27.127058 -17.686150 -130.707451 37.261602 -102.377350 2.236764 -1.386822 0.269890 0.005580 -0.347140 -0.102410 
-1.264910 17.660480 -1.946420 23.769766 -36.263804 -30.329713 -16.043099 9.922637 8.156198 22.877217 5.877593 -75.750103 -2.031197 23.699751 72.971302 1.718652 14.216782 -0.238304 0.750980 0.567200 0.637510 18.199813 -8.647781 0.586661 -27.346220 6.629046 -4.376142 10.483825 -8.497439 26.778429 -0.742051 -5.597684 2.308096 0.081460 -0.298340 0.294630 -2.222958 -2.589229 -9.885455 -8.247084 10.490814 55.527685 -0.948567 10.751879 11.462750 4.433443 -11.809999 -17.872810 -24.378427 14.684282 38.256648 -13.262980 5.428750 -24.389860 -20.366388 -20.862311 10.490406 -40.029677 15.198380 -19.493756 -75.597219 -28.198722 6.110938 -3.105499 3.367709 0.578380 -0.268260 0.417830 0.156030 12.735171 41.903239 11.500189 23.088234 27.896270 -16.154475 -133.586438 38.096790 -109.898965 2.226874 -1.411034 0.252870 0.012790 -0.318900 -0.114440 
-1.187770 17.713710 -1.896430 23.349580 -38.697009 -28.650484 -15.873111 10.255200 7.818742 20.032261 3.061487 -72.060240 -2.061927 24.531510 75.146417 1.821645 14.625708 -0.344633 0.760300 0.560160 0.655300 18.263125 -9.037272 0.723624 -26.050037 6.978532 -10.276981 8.083784 -8.015945 31.670173 -0.702704 -5.478962 2.320897 0.090870 -0.316180 0.287280 -2.483745 -2.186606 -9.650312 -6.001270 9.245572 55.449982 -1.998266 10.219049 10.550217 4.097334 -11.771128 -17.772675 -25.069305 15.672580 39.077815 -13.476660 5.116400 -24.572610 -19.016048 -20.322815 9.891938 -39.915392 13.760710 -19.054359 -76.193954 -25.862590 4.688496 -3.121599 3.344417 0.613950 -0.285100 0.424150 0.143230 11.998006 40.393184 11.797307 27.819162 28.477738 -14.769464 -136.737602 39.165744 -118.565361 2.222693 -1.433120 0.234900 0.025690 -0.308470 -0.135290 
-1.139390 17.752690 -1.842560 22.453225 -40.790685 -27.485317 -15.717717 10.796321 7.290183 15.777615 0.035185 -67.552592 -0.991321 23.897523 76.672359 1.923656 14.699450 -0.348111 0.808600 0.628620 0.693210 18.275465 -9.401967 0.907795 -24.013580 6.911493 -13.940657 5.134845 -7.024360 34.620179 -0.712082 -5.291410 2.377316 0.121670 -0.372790 0.275560 -2.593467 -2.172627 -9.370368 -4.290761 8.216976 55.544657 -2.256548 9.622094 10.154374 4.083626 -11.712478 -17.824978 -25.803073 16.256443 40.618338 -14.761490 4.768140 -24.712980 -18.696620 -20.251082 9.534178 -39.620149 12.950349 -18.970211 -75.652815 -23.282926 2.723510 -3.074466 3.337064 0.622600 -0.323470 0.473310 0.165400 11.704537 39.756770 12.057031 30.841794 28.436352 -14.202983 -138.363480 41.460891 -125.536462 2.272231 -1.467504 0.256360 0.023790 -0.360550 -0.127140 
-1.087560 17.761360 -1.780510 21.021832 -43.183446 -25.834011 -15.552357 11.269707 6.765482 11.425090 -2.157300 -62.772206 -0.820082 23.224363 76.430056 2.025713 14.536250 -0.289295 0.879410 0.745470 0.720800 18.298834 -9.729689 1.192843 -21.472548 7.227662 -17.593740 1.840831 -5.711281 37.539072 -0.752557 -5.148942 2.439252 0.154490 -0.432110 0.273200 -2.807457 -2.025588 -9.089802 -1.841496 6.678231 55.742142 -3.044274 8.717782 9.346827 4.013247 -11.887119 -17.906544 -27.550460 17.654498 41.891007 -15.509270 4.508990 -24.915740 -18.705358 -20.074477 9.282214 -39.581876 12.536768 -19.008230 -74.348939 -20.730403 0.744233 -3.009329 3.357058 0.598990 -0.365020 0.537380 0.208450 11.865267 38.914889 12.097462 34.384532 28.625525 -13.278061 -139.878506 45.070104 -132.918900 2.340210 -1.524487 0.322910 0.010850 -0.432680 -0.085020 
-1.050340 17.740020 -1.709990 17.754990 -45.437989 -23.113986 -15.403376 11.658083 6.264462 8.430440 -3.082333 -57.030670 -2.472278 22.764686 73.357863 1.963198 14.091943 -0.178043 0.938590 0.804610 0.773230 18.318872 -9.985024 1.562824 -17.645498 7.957977 -20.019679 -1.134502 -4.344917 40.138702 -0.828566 -5.112949 2.448134 0.182790 -0.486460 0.277030 -3.112882 -1.777620 -8.815415 2.067698 4.210325 56.401620 -4.502151 7.591493 8.452475 4.104516 -12.158373 -17.455269 -29.316947 19.008956 42.337609 -16.789340 4.154570 -25.926710 -19.029783 -19.129154 8.693224 -39.201380 11.968879 -18.767347 -73.180757 -18.688656 -0.661628 -2.965369 3.356403 0.621550 -0.406200 0.583330 0.220590 11.831533 37.173103 11.586788 38.333496 28.610345 -12.486241 -141.757780 49.375585 -140.503184 2.365707 -1.599928 0.346120 0.008920 -0.470280 -0.085300 
-1.008560 17.690300 -1.588030 12.719567 -46.888182 -18.821813 -15.243996 11.942335 5.744041 5.247255 -3.942286 -51.137632 -3.443610 20.914515 68.929503 1.793652 13.155054 0.078369 0.967620 0.861920 0.757610 18.346865 -10.268668 2.038092 -13.744369 8.820553 -21.698410 -3.381612 -3.357006 42.481935 -0.914211 -5.251486 2.431539 0.206830 -0.472460 0.279270 -3.647285 -1.243028 -8.514463 8.472685 -0.211531 56.036018 -6.975383 5.428975 7.491891 4.157608 -12.644415 -17.013126 -31.735434 20.852688 42.164067 -16.890010 3.872720 -25.555000 -20.611523 -18.568173 8.247728 -38.534488 11.800802 -18.314204 -71.331998 -16.164923 -2.348307 -2.963658 3.348848 0.597360 -0.401490 0.593890 0.250630 13.216006 35.222629 10.883125 41.368408 28.347853 -11.797981 -142.963929 54.988430 -146.303334 2.353599 -1.674948 0.373180 0.034470 -0.479370 -0.050690 
-0.979240 17.601740 -1.468090 6.841486 -47.571380 -13.479151 -15.126397 12.242526 5.134740 2.836095 -3.963960 -44.461298 -5.114134 18.627275 61.514826 1.402898 11.667567 0.461929 0.974660 0.827860 0.796680 18.365728 -10.411188 2.569426 -9.959788 9.960529 -23.201824 -4.682704 -2.735132 44.447919 -1.000234 -5.416798 2.332685 0.206250 -0.508870 0.293530 -4.076977 -0.966423 -8.224115 14.613047 -4.412157 54.930924 -9.191399 2.893525 6.025916 4.549492 -13.134908 -16.006716 -34.279789 22.487777 41.453997 -18.327180 3.744430 -26.713150 -22.526989 -17.056513 7.432437 -39.215844 11.344926 -17.489353 -64.944097 -12.570782 -4.371280 -2.957902 3.304484 0.642370 -0.430420 0.599340 0.202060 14.155618 32.293602 9.563272 44.623062 28.091037 -11.247197 -146.448126 62.696632 -154.504637 2.300131 -1.769123 0.362170 0.025330 -0.443160 -0.086530 
